<svg xmlns="http://www.w3.org/2000/svg" xmlns:svg="http://www.w3.org/2000/svg" id="svg10" width="64" height="64" enable-background="new 0 0 64 64" version="1.1" viewBox="0 0 64 64"><metadata id="metadata16"/><path id="path4552" fill="#fff" fill-rule="evenodd" stroke="#5b5b5c" stroke-linejoin="round" stroke-width="1" d="m 11.5,58.5 v -53 c 0,-1.2185071 0.879495,-2 2,-2 H 38.863635 L 54.499998,18.699999 V 58.5 c 0,0.936644 -0.907868,2 -1.999998,2 h -39 c -0.972872,0 -2,-0.973856 -2,-2 z"/><path id="path4554" fill="#f0f0f0" fill-rule="evenodd" stroke="#5b5b5c" stroke-linejoin="round" stroke-width="1" d="M 39.5,3.9999282 V 17.5 c 0,0.968865 0.485879,1.5 1.5,1.5 h 13.500072 z"/><path id="path4556" fill="none" stroke="#969696" stroke-dasharray="none" stroke-miterlimit="4" stroke-width="2" d="M 17.30047,22.498622 H 42.417773"/><path id="path4558" fill="none" stroke="#969696" stroke-dasharray="none" stroke-miterlimit="4" stroke-width="2" d="M 17.30047,30.099724 H 46.281973"/><path id="path4560" fill="none" stroke="#969696" stroke-dasharray="none" stroke-miterlimit="4" stroke-width="2" d="M 17.30047,37.700827 H 36.621472"/><path id="path4562" fill="none" stroke="#969696" stroke-dasharray="none" stroke-miterlimit="4" stroke-width="2" d="M 17.30047,45.30193 H 44.349873"/><path id="path4564" fill="none" stroke="#969696" stroke-dasharray="none" stroke-miterlimit="4" stroke-width="2" d="M 17.30047,52.903032 H 44.349873"/><g id="g28" stroke-dashoffset=".5" stroke-linejoin="round" stroke-width=".415" transform="matrix(1.3708735,0.78539358,-0.79147405,1.3603418,41.628111,2.2285256)"><path id="path10" fill="#505050" stroke="#505050" stroke-linecap="round" stroke-width=".311" d="m 8.0961023,18.028419 h 5.9999997 l -3.12491,6.990956 z" overflow="visible"/><path id="path12" fill="#de6b37" stroke="#c04317" stroke-linecap="round" stroke-width=".311" d="m 8.0961004,1.0284199 6.0000006,-1e-6 10e-7,17.0000001 H 8.0961023 l -1.9e-6,-16.9999991" overflow="visible"/><path id="path14" fill="none" stroke="#f8b008" stroke-width=".873" d="m 10.576704,2.1008083 1e-6,15.7948847" opacity=".5" overflow="visible"/><path id="path16" fill-opacity=".588" stroke="#632923" stroke-width=".895" d="M 12.686221,2.0551469 12.605242,18.203768" opacity=".25" overflow="visible"/><path id="path18" fill="#fc894f" stroke="#a7481e" stroke-linecap="round" stroke-width=".311" d="m 12.096101,2.0284193 10e-7,15.9999997" opacity=".5" overflow="visible"/><path id="path20" fill="#969696" stroke="#969696" stroke-linecap="square" stroke-width=".207" d="m 11.463292,23.228968 1.996957,-4.943779 -1.996957,-10e-7 z" overflow="visible"/><path id="path22" fill="#db562d" stroke="#9b3819" stroke-linecap="round" stroke-width=".311" d="m 9.5961007,2.0284198 1.5e-6,15.9999982" opacity=".5" overflow="visible"/><path id="path24" fill="#e6e6e6" stroke="#969696" stroke-linecap="round" stroke-width=".207" d="M 7.8653316,-0.08727704 H 14.326869 V 2.0918543 H 7.8653316 Z" overflow="visible"/><path id="path26" fill="#e6e6e6" stroke="#e6e6e6" stroke-linecap="square" stroke-width=".207" d="M 10.728912,23.38728 8.7319564,18.285189 h 1.9969556 z" overflow="visible"/></g></svg>